<mxfile><diagram name="Page-1" id="rVIDbcpYpihhtvTPg1Yo"><mxGraphModel dx="1763" dy="1805" grid="1" gridSize="10" guides="1" tooltips="1" connect="1" arrows="1" fold="1" page="1" pageScale="1" pageWidth="827" pageHeight="1169" math="0" shadow="0"><root><mxCell id="0"/><mxCell id="1" parent="0"/><mxCell id="eZvjlNm0MPi_77QAnRtO-4" value="" style="edgeStyle=orthogonalEdgeStyle;rounded=0;orthogonalLoop=1;jettySize=auto;exitX=1;exitY=0.5;exitDx=0;exitDy=0;entryX=0.5;entryY=0;entryDx=0;entryDy=0;strokeWidth=2;fontColor=#FFFFFF;html=1;labelBackgroundColor=none;" parent="1" source="eZvjlNm0MPi_77QAnRtO-1" target="eZvjlNm0MPi_77QAnRtO-2" edge="1"><mxGeometry relative="1" as="geometry"><mxPoint x="392" y="120" as="sourcePoint"/></mxGeometry></mxCell><mxCell id="eZvjlNm0MPi_77QAnRtO-46" value="" style="edgeStyle=orthogonalEdgeStyle;rounded=0;orthogonalLoop=1;jettySize=auto;exitX=0;exitY=0.5;exitDx=0;exitDy=0;entryX=0.5;entryY=0;entryDx=0;entryDy=0;labelBorderColor=none;startArrow=none;strokeWidth=2;fontColor=#FFFFFF;html=1;labelBackgroundColor=none;" parent="1" source="eZvjlNm0MPi_77QAnRtO-1" target="eZvjlNm0MPi_77QAnRtO-6" edge="1"><mxGeometry relative="1" as="geometry"><mxPoint x="210" y="-770" as="sourcePoint"/></mxGeometry></mxCell><mxCell id="eZvjlNm0MPi_77QAnRtO-1" value="Landing page&lt;br&gt;&lt;ol&gt;&lt;li&gt;Log in&lt;/li&gt;&lt;li&gt;Sign up&lt;/li&gt;&lt;/ol&gt;" style="rounded=1;align=center;fontColor=#FFFFFF;whiteSpace=wrap;html=1;fillStyle=auto;fillColor=#333333;labelBackgroundColor=none;strokeWidth=2;strokeColor=#FFFFFF;" parent="1" vertex="1"><mxGeometry x="310" y="-820" width="170" height="100" as="geometry"/></mxCell><mxCell id="12" value="" style="edgeStyle=none;exitX=-0.005;exitY=0.845;exitDx=0;exitDy=0;entryX=1;entryY=0.75;entryDx=0;entryDy=0;labelBorderColor=none;strokeWidth=2;exitPerimeter=0;fontColor=#FFFFFF;html=1;labelBackgroundColor=none;" parent="1" source="eZvjlNm0MPi_77QAnRtO-2" target="eZvjlNm0MPi_77QAnRtO-6" edge="1"><mxGeometry relative="1" as="geometry"/></mxCell><mxCell id="eZvjlNm0MPi_77QAnRtO-2" value="Adresse ?&lt;br&gt;surname?&lt;br&gt;Lastnam?&lt;br&gt;&lt;br&gt;Username ?&lt;br&gt;password?&lt;br&gt;confirmer password?&lt;br&gt;&lt;ol&gt;&lt;li style=&quot;text-align: left;&quot;&gt;Log in&lt;/li&gt;&lt;/ol&gt;" style="rounded=1;fontColor=#FFFFFF;whiteSpace=wrap;html=1;fillColor=#333333;labelBackgroundColor=none;strokeWidth=2;strokeColor=#FFFFFF;" parent="1" vertex="1"><mxGeometry x="535" y="-730" width="170" height="140" as="geometry"/></mxCell><mxCell id="5" value="" style="edgeStyle=none;labelBorderColor=none;exitX=0;exitY=0.5;exitDx=0;exitDy=0;entryX=0.5;entryY=0;entryDx=0;entryDy=0;fillColor=#d80073;strokeColor=#A50040;strokeWidth=2;fontColor=#FFFFFF;html=1;labelBackgroundColor=none;" parent="1" source="eZvjlNm0MPi_77QAnRtO-6" target="eZvjlNm0MPi_77QAnRtO-9" edge="1"><mxGeometry relative="1" as="geometry"><Array as="points"><mxPoint x="30" y="-636"/></Array></mxGeometry></mxCell><mxCell id="10" value="" style="edgeStyle=none;labelBorderColor=none;strokeWidth=2;entryX=0.5;entryY=0;entryDx=0;entryDy=0;fillColor=#008a00;strokeColor=#005700;exitX=0.5;exitY=1;exitDx=0;exitDy=0;fontColor=#FFFFFF;html=1;labelBackgroundColor=none;" parent="1" source="eZvjlNm0MPi_77QAnRtO-6" target="eZvjlNm0MPi_77QAnRtO-10" edge="1"><mxGeometry relative="1" as="geometry"><Array as="points"><mxPoint x="175" y="-530"/><mxPoint x="395" y="-530"/><mxPoint x="435" y="-530"/></Array></mxGeometry></mxCell><mxCell id="11" value="" style="edgeStyle=none;exitX=0.75;exitY=1;exitDx=0;exitDy=0;entryX=0.5;entryY=0;entryDx=0;entryDy=0;labelBorderColor=none;strokeWidth=2;fillColor=#0050ef;strokeColor=#001DBC;fontColor=#FFFFFF;html=1;labelBackgroundColor=none;" parent="1" source="eZvjlNm0MPi_77QAnRtO-6" target="eZvjlNm0MPi_77QAnRtO-11" edge="1"><mxGeometry relative="1" as="geometry"><Array as="points"><mxPoint x="218" y="-550"/><mxPoint x="700" y="-550"/></Array></mxGeometry></mxCell><mxCell id="eZvjlNm0MPi_77QAnRtO-6" value="username?&lt;br&gt;password?&lt;br&gt;&lt;ol&gt;&lt;li&gt;Sign Up&lt;/li&gt;&lt;/ol&gt;" style="rounded=1;fontColor=#FFFFFF;whiteSpace=wrap;html=1;fillColor=#333333;labelBackgroundColor=none;strokeWidth=2;strokeColor=#FFFFFF;" parent="1" vertex="1"><mxGeometry x="90" y="-688" width="170" height="104" as="geometry"/></mxCell><mxCell id="eZvjlNm0MPi_77QAnRtO-39" value="" style="edgeStyle=orthogonalEdgeStyle;rounded=1;orthogonalLoop=1;jettySize=auto;exitX=0;exitY=0.25;exitDx=0;exitDy=0;entryX=0.25;entryY=0;entryDx=0;entryDy=0;fillColor=#d80073;strokeColor=#A50040;strokeWidth=2;fontColor=#000000;html=1;" parent="1" source="eZvjlNm0MPi_77QAnRtO-9" target="eZvjlNm0MPi_77QAnRtO-12" edge="1"><mxGeometry relative="1" as="geometry"/></mxCell><mxCell id="24" value="" style="edgeStyle=none;rounded=1;exitX=0.25;exitY=1;exitDx=0;exitDy=0;entryX=0.25;entryY=0;entryDx=0;entryDy=0;labelBorderColor=none;strokeWidth=2;fillColor=#d80073;strokeColor=#A50040;fontColor=#FFFFFF;html=1;labelBackgroundColor=none;" parent="1" source="eZvjlNm0MPi_77QAnRtO-9" target="eZvjlNm0MPi_77QAnRtO-13" edge="1"><mxGeometry relative="1" as="geometry"/></mxCell><mxCell id="27" value="" style="edgeStyle=none;rounded=1;exitX=1;exitY=0.25;exitDx=0;exitDy=0;entryX=0.75;entryY=0;entryDx=0;entryDy=0;labelBorderColor=none;strokeWidth=2;fillColor=#d80073;strokeColor=#A50040;fontColor=#FFFFFF;html=1;labelBackgroundColor=none;" parent="1" source="eZvjlNm0MPi_77QAnRtO-9" target="15" edge="1"><mxGeometry relative="1" as="geometry"><Array as="points"><mxPoint x="282" y="-468"/></Array></mxGeometry></mxCell><mxCell id="eZvjlNm0MPi_77QAnRtO-9" value="&lt;br&gt;User Interface&lt;br&gt;&lt;ol&gt;&lt;li style=&quot;text-align: left;&quot;&gt;Menu&lt;/li&gt;&lt;li style=&quot;text-align: left;&quot;&gt;Shopping Cart&lt;/li&gt;&lt;li style=&quot;text-align: left;&quot;&gt;Edit Account&lt;/li&gt;&lt;/ol&gt;" style="rounded=1;arcSize=14;fillColor=#333333;fontColor=#FFFFFF;strokeColor=#A50040;fillStyle=auto;whiteSpace=wrap;html=1;labelBackgroundColor=none;strokeWidth=2;" parent="1" vertex="1"><mxGeometry x="-53" y="-496" width="170" height="108" as="geometry"/></mxCell><mxCell id="eZvjlNm0MPi_77QAnRtO-10" value="Driver Interface&lt;br&gt;&lt;br&gt;Edit vehicule?&lt;br&gt;&lt;br&gt;Be available [On/Off]&lt;br&gt;&lt;ol&gt;&lt;li style=&quot;text-align: left;&quot;&gt;New Delivery&lt;/li&gt;&lt;/ol&gt;" style="rounded=1;strokeColor=#009900;fontColor=#FFFFFF;whiteSpace=wrap;html=1;fillColor=#333333;labelBackgroundColor=none;strokeWidth=2;" parent="1" vertex="1"><mxGeometry x="350" y="-480" width="170" height="138" as="geometry"/></mxCell><mxCell id="47" value="" style="edgeStyle=none;rounded=1;exitX=0;exitY=0.25;exitDx=0;exitDy=0;entryX=0;entryY=0.75;entryDx=0;entryDy=0;labelBorderColor=none;strokeWidth=2;fillColor=#6a00ff;strokeColor=#3700CC;fontColor=#FFFFFF;html=1;labelBackgroundColor=none;" parent="1" source="eZvjlNm0MPi_77QAnRtO-11" target="eZvjlNm0MPi_77QAnRtO-45" edge="1"><mxGeometry relative="1" as="geometry"><Array as="points"><mxPoint x="560" y="-480"/><mxPoint x="560" y="-254"/></Array></mxGeometry></mxCell><mxCell id="54" value="" style="edgeStyle=none;rounded=1;exitX=1;exitY=0.75;exitDx=0;exitDy=0;entryX=1;entryY=0.25;entryDx=0;entryDy=0;labelBorderColor=none;strokeWidth=2;fillColor=#6a00ff;strokeColor=#3700CC;fontColor=#FFFFFF;html=1;labelBackgroundColor=none;" parent="1" source="eZvjlNm0MPi_77QAnRtO-11" target="eZvjlNm0MPi_77QAnRtO-32" edge="1"><mxGeometry relative="1" as="geometry"><Array as="points"><mxPoint x="800" y="-420"/><mxPoint x="790" y="-150"/></Array></mxGeometry></mxCell><mxCell id="eZvjlNm0MPi_77QAnRtO-11" value="Admin interface&lt;br&gt;&lt;div style=&quot;text-align: left;&quot;&gt;&lt;ol&gt;&lt;li&gt;&lt;span style=&quot;background-color: initial;&quot;&gt;Stock&lt;/span&gt;&lt;/li&gt;&lt;li&gt;&lt;span style=&quot;background-color: initial;&quot;&gt;Membre&lt;/span&gt;&lt;/li&gt;&lt;/ol&gt;&lt;/div&gt;&lt;div style=&quot;text-align: left;&quot;&gt;&lt;/div&gt;" style="rounded=1;strokeColor=#007FFF;fontColor=#FFFFFF;whiteSpace=wrap;html=1;fillColor=#333333;labelBackgroundColor=none;strokeWidth=2;" parent="1" vertex="1"><mxGeometry x="610" y="-510" width="170" height="110" as="geometry"/></mxCell><mxCell id="22" value="" style="edgeStyle=none;exitX=0.75;exitY=0;exitDx=0;exitDy=0;labelBorderColor=none;strokeWidth=2;entryX=0;entryY=0.75;entryDx=0;entryDy=0;fillColor=#d80073;strokeColor=#A50040;fontColor=#FFFFFF;html=1;labelBackgroundColor=none;" parent="1" source="eZvjlNm0MPi_77QAnRtO-12" target="eZvjlNm0MPi_77QAnRtO-9" edge="1"><mxGeometry relative="1" as="geometry"><mxPoint x="247" y="-378" as="targetPoint"/><Array as="points"><mxPoint x="-173" y="-415"/></Array></mxGeometry></mxCell><mxCell id="30" value="" style="edgeStyle=none;rounded=1;exitX=1;exitY=0.75;exitDx=0;exitDy=0;entryX=0;entryY=0.75;entryDx=0;entryDy=0;labelBorderColor=none;strokeWidth=2;fillColor=#d80073;strokeColor=#A50040;fontColor=#FFFFFF;html=1;labelBackgroundColor=none;" parent="1" source="eZvjlNm0MPi_77QAnRtO-12" target="eZvjlNm0MPi_77QAnRtO-13" edge="1"><mxGeometry relative="1" as="geometry"/></mxCell><mxCell id="eZvjlNm0MPi_77QAnRtO-12" value="Menu&lt;br&gt;&lt;br&gt;-fraise&lt;br&gt;-kebab&lt;br&gt;&lt;div style=&quot;&quot;&gt;&lt;ol&gt;&lt;li style=&quot;text-align: left;&quot;&gt;&lt;span style=&quot;background-color: initial;&quot;&gt;Home&lt;/span&gt;&lt;/li&gt;&lt;li style=&quot;text-align: left;&quot;&gt;&lt;span style=&quot;background-color: initial;&quot;&gt;Shopping Cart&lt;/span&gt;&lt;/li&gt;&lt;/ol&gt;&lt;/div&gt;" style="rounded=1;strokeColor=#CC0066;fontColor=#FFFFFF;whiteSpace=wrap;html=1;fillColor=#333333;strokeWidth=2;" parent="1" vertex="1"><mxGeometry x="-286" y="-254" width="150" height="130" as="geometry"/></mxCell><mxCell id="25" value="" style="edgeStyle=none;rounded=1;exitX=0.75;exitY=0;exitDx=0;exitDy=0;entryX=0.75;entryY=1;entryDx=0;entryDy=0;labelBorderColor=none;strokeWidth=2;fillColor=#d80073;strokeColor=#A50040;fontColor=#FFFFFF;html=1;labelBackgroundColor=none;" parent="1" source="eZvjlNm0MPi_77QAnRtO-13" target="eZvjlNm0MPi_77QAnRtO-9" edge="1"><mxGeometry relative="1" as="geometry"/></mxCell><mxCell id="29" value="" style="edgeStyle=none;rounded=1;exitX=0;exitY=0.25;exitDx=0;exitDy=0;entryX=1;entryY=0.25;entryDx=0;entryDy=0;labelBorderColor=none;strokeWidth=2;fillColor=#d80073;strokeColor=#A50040;fontColor=#FFFFFF;html=1;labelBackgroundColor=none;" parent="1" source="eZvjlNm0MPi_77QAnRtO-13" target="eZvjlNm0MPi_77QAnRtO-12" edge="1"><mxGeometry relative="1" as="geometry"/></mxCell><mxCell id="eZvjlNm0MPi_77QAnRtO-13" value="Shopping Cart&lt;br&gt;-fraise&amp;nbsp; [+][-]&lt;br&gt;-kebab [+][-]&lt;br&gt;&lt;ol&gt;&lt;li style=&quot;text-align: left;&quot;&gt;Home&lt;/li&gt;&lt;li style=&quot;text-align: left;&quot;&gt;Menu&lt;/li&gt;&lt;li style=&quot;text-align: left;&quot;&gt;Order&lt;/li&gt;&lt;/ol&gt;" style="rounded=1;strokeColor=#CC0066;fontColor=#FFFFFF;whiteSpace=wrap;html=1;fillColor=#333333;labelBackgroundColor=none;strokeWidth=2;" parent="1" vertex="1"><mxGeometry x="-53" y="-254" width="170" height="134" as="geometry"/></mxCell><mxCell id="35" value="" style="edgeStyle=none;rounded=1;exitX=0.75;exitY=0;exitDx=0;exitDy=0;entryX=0.75;entryY=1;entryDx=0;entryDy=0;labelBorderColor=none;strokeWidth=2;fillColor=#d80073;strokeColor=#A50040;fontColor=#FFFFFF;html=1;labelBackgroundColor=none;" parent="1" source="eZvjlNm0MPi_77QAnRtO-15" target="eZvjlNm0MPi_77QAnRtO-13" edge="1"><mxGeometry relative="1" as="geometry"/></mxCell><mxCell id="eZvjlNm0MPi_77QAnRtO-15" value="Order&lt;br&gt;&lt;br&gt;Adress?(Pre-filled)&lt;br&gt;Delivery time?&lt;br&gt;&lt;ol&gt;&lt;li style=&quot;text-align: left;&quot;&gt;Go back&lt;/li&gt;&lt;/ol&gt;" style="rounded=1;strokeColor=#CC0066;fontColor=#FFFFFF;whiteSpace=wrap;html=1;fillColor=#333333;labelBackgroundColor=none;strokeWidth=2;" parent="1" vertex="1"><mxGeometry x="-53" y="-48" width="170" height="136" as="geometry"/></mxCell><mxCell id="40" value="" style="edgeStyle=none;rounded=1;exitX=0.75;exitY=0;exitDx=0;exitDy=0;entryX=0.75;entryY=1;entryDx=0;entryDy=0;labelBorderColor=none;strokeWidth=2;fillColor=#008a00;strokeColor=#005700;fontColor=#FFFFFF;html=1;labelBackgroundColor=none;" parent="1" source="eZvjlNm0MPi_77QAnRtO-24" target="eZvjlNm0MPi_77QAnRtO-10" edge="1"><mxGeometry relative="1" as="geometry"/></mxCell><mxCell id="eZvjlNm0MPi_77QAnRtO-24" value="New Delivery&lt;br&gt;&lt;br&gt;Steps:&lt;br&gt;&lt;br&gt;Duration :&lt;br&gt;&lt;div style=&quot;&quot;&gt;&lt;ol&gt;&lt;li style=&quot;text-align: left;&quot;&gt;&lt;span style=&quot;background-color: initial;&quot;&gt;Accept&lt;/span&gt;&lt;/li&gt;&lt;li style=&quot;text-align: left;&quot;&gt;&lt;span style=&quot;background-color: initial;&quot;&gt;Refuse&lt;/span&gt;&lt;/li&gt;&lt;/ol&gt;&lt;/div&gt;" style="rounded=1;strokeColor=#009900;fontColor=#FFFFFF;whiteSpace=wrap;html=1;fillColor=#333333;labelBackgroundColor=none;strokeWidth=2;" parent="1" vertex="1"><mxGeometry x="350" y="-282" width="170" height="160" as="geometry"/></mxCell><mxCell id="eZvjlNm0MPi_77QAnRtO-31" value="" style="endArrow=classic;rounded=0;exitX=0.5;exitY=1;exitDx=0;exitDy=0;entryX=0.5;entryY=0;entryDx=0;entryDy=0;fillColor=#008a00;strokeColor=#005700;fontColor=#FFFFFF;html=1;labelBackgroundColor=none;" parent="1" source="eZvjlNm0MPi_77QAnRtO-24" target="44" edge="1"><mxGeometry width="50" height="50" relative="1" as="geometry"><mxPoint x="340" y="448" as="sourcePoint"/><mxPoint x="430" y="-78.00000000000023" as="targetPoint"/></mxGeometry></mxCell><mxCell id="55" value="" style="edgeStyle=none;rounded=1;exitX=1;exitY=0.75;exitDx=0;exitDy=0;entryX=1;entryY=0.25;entryDx=0;entryDy=0;labelBorderColor=none;strokeWidth=2;fillColor=#6a00ff;strokeColor=#3700CC;fontColor=#FFFFFF;html=1;labelBackgroundColor=none;" parent="1" source="eZvjlNm0MPi_77QAnRtO-32" target="eZvjlNm0MPi_77QAnRtO-11" edge="1"><mxGeometry relative="1" as="geometry"><Array as="points"><mxPoint x="800" y="-90"/><mxPoint x="810" y="-480"/></Array></mxGeometry></mxCell><mxCell id="eZvjlNm0MPi_77QAnRtO-32" value="Add item&lt;br&gt;Edit item&lt;br&gt;Delete item&lt;br&gt;Store item&lt;br&gt;Expose item&lt;br&gt;&lt;ol&gt;&lt;li&gt;Go back&lt;/li&gt;&lt;/ol&gt;" style="rounded=1;strokeColor=#007FFF;fontColor=#FFFFFF;whiteSpace=wrap;html=1;fillColor=#333333;labelBackgroundColor=none;strokeWidth=2;" parent="1" vertex="1"><mxGeometry x="585" y="-182" width="155" height="122" as="geometry"/></mxCell><mxCell id="eZvjlNm0MPi_77QAnRtO-41" value="" style="endArrow=classic;rounded=0;exitX=0.25;exitY=1;exitDx=0;exitDy=0;entryX=0.25;entryY=0;entryDx=0;entryDy=0;fillColor=#d80073;strokeColor=#A50040;strokeWidth=2;fontColor=#FFFFFF;html=1;labelBackgroundColor=none;" parent="1" source="eZvjlNm0MPi_77QAnRtO-13" target="eZvjlNm0MPi_77QAnRtO-15" edge="1"><mxGeometry width="50" height="50" relative="1" as="geometry"><mxPoint x="517" y="432" as="sourcePoint"/><mxPoint x="567" y="382" as="targetPoint"/></mxGeometry></mxCell><mxCell id="eZvjlNm0MPi_77QAnRtO-42" value="" style="endArrow=classic;rounded=0;exitX=0.25;exitY=1;exitDx=0;exitDy=0;entryX=0.25;entryY=0;entryDx=0;entryDy=0;fillColor=#008a00;strokeColor=#005700;strokeWidth=2;fontColor=#FFFFFF;html=1;labelBackgroundColor=none;" parent="1" source="eZvjlNm0MPi_77QAnRtO-10" target="eZvjlNm0MPi_77QAnRtO-24" edge="1"><mxGeometry width="50" height="50" relative="1" as="geometry"><mxPoint x="340" y="448" as="sourcePoint"/><mxPoint x="240" y="468" as="targetPoint"/></mxGeometry></mxCell><mxCell id="49" value="" style="edgeStyle=none;rounded=1;exitX=0;exitY=0.25;exitDx=0;exitDy=0;entryX=0;entryY=0.75;entryDx=0;entryDy=0;labelBorderColor=none;strokeWidth=2;fillColor=#6a00ff;strokeColor=#3700CC;fontColor=#FFFFFF;html=1;labelBackgroundColor=none;" parent="1" source="eZvjlNm0MPi_77QAnRtO-45" target="eZvjlNm0MPi_77QAnRtO-11" edge="1"><mxGeometry relative="1" as="geometry"><Array as="points"><mxPoint x="570" y="-315"/><mxPoint x="570" y="-427"/></Array></mxGeometry></mxCell><mxCell id="eZvjlNm0MPi_77QAnRtO-45" value="Create user&lt;br&gt;Edit user&lt;br&gt;Delete user&lt;br&gt;&lt;ol&gt;&lt;li&gt;Go Back&lt;/li&gt;&lt;/ol&gt;" style="rounded=1;strokeColor=#007FFF;fontColor=#FFFFFF;whiteSpace=wrap;html=1;fillColor=#333333;labelBackgroundColor=none;strokeWidth=2;" parent="1" vertex="1"><mxGeometry x="600" y="-346" width="155" height="122" as="geometry"/></mxCell><mxCell id="13" value="1." style="text;align=center;verticalAlign=middle;rounded=0;fontColor=#000000;whiteSpace=wrap;html=1;labelBackgroundColor=none;" parent="1" vertex="1"><mxGeometry x="250" y="-800" width="60" height="30" as="geometry"/></mxCell><mxCell id="14" value="2." style="text;align=center;verticalAlign=middle;rounded=0;fontColor=#000000;whiteSpace=wrap;html=1;labelBackgroundColor=none;" parent="1" vertex="1"><mxGeometry x="480" y="-800" width="60" height="30" as="geometry"/></mxCell><mxCell id="26" value="" style="edgeStyle=none;rounded=1;exitX=0.25;exitY=0;exitDx=0;exitDy=0;labelBorderColor=none;strokeWidth=2;entryX=1;entryY=0.75;entryDx=0;entryDy=0;fillColor=#d80073;strokeColor=#A50040;fontColor=#FFFFFF;html=1;labelBackgroundColor=none;" parent="1" source="15" target="eZvjlNm0MPi_77QAnRtO-9" edge="1"><mxGeometry relative="1" as="geometry"><mxPoint x="263.25" y="-408" as="targetPoint"/><Array as="points"><mxPoint x="207" y="-415"/></Array></mxGeometry></mxCell><mxCell id="15" value="Adresse ?&lt;br&gt;surname?&lt;br&gt;Lastnam?&lt;br&gt;&lt;br&gt;&lt;br&gt;password?&lt;br&gt;confirmer password?" style="rounded=1;strokeColor=#CC0066;fontColor=#FFFFFF;whiteSpace=wrap;html=1;fillColor=#333333;labelBackgroundColor=none;strokeWidth=2;" parent="1" vertex="1"><mxGeometry x="167" y="-254" width="153" height="136" as="geometry"/></mxCell><mxCell id="16" value="" style="edgeStyle=none;exitX=1;exitY=0.25;exitDx=0;exitDy=0;labelBorderColor=none;strokeWidth=2;entryX=0;entryY=0.5;entryDx=0;entryDy=0;fontColor=#FFFFFF;html=1;labelBackgroundColor=none;" parent="1" source="eZvjlNm0MPi_77QAnRtO-6" target="eZvjlNm0MPi_77QAnRtO-2" edge="1"><mxGeometry relative="1" as="geometry"><mxPoint x="545" y="-600" as="sourcePoint"/><mxPoint x="420" y="-660" as="targetPoint"/></mxGeometry></mxCell><mxCell id="17" value="1." style="text;align=center;verticalAlign=middle;rounded=0;fontColor=#000000;whiteSpace=wrap;html=1;labelBackgroundColor=none;" parent="1" vertex="1"><mxGeometry x="260" y="-690" width="60" height="30" as="geometry"/></mxCell><mxCell id="20" value="1." style="text;align=center;verticalAlign=middle;rounded=0;fontColor=#000000;whiteSpace=wrap;html=1;labelBackgroundColor=none;" parent="1" vertex="1"><mxGeometry x="-113" y="-498" width="60" height="30" as="geometry"/></mxCell><mxCell id="21" value="2." style="text;align=center;verticalAlign=middle;rounded=0;fontColor=#000000;whiteSpace=wrap;html=1;labelBackgroundColor=none;" parent="1" vertex="1"><mxGeometry x="-63" y="-388" width="60" height="30" as="geometry"/></mxCell><mxCell id="28" value="3." style="text;align=center;verticalAlign=middle;rounded=0;fontColor=#000000;whiteSpace=wrap;html=1;labelBackgroundColor=none;" parent="1" vertex="1"><mxGeometry x="117" y="-498" width="60" height="30" as="geometry"/></mxCell><mxCell id="31" value="2." style="text;align=center;verticalAlign=middle;rounded=0;fontColor=#000000;whiteSpace=wrap;html=1;labelBackgroundColor=none;" parent="1" vertex="1"><mxGeometry x="-103" y="-254" width="60" height="30" as="geometry"/></mxCell><mxCell id="32" value="2." style="text;align=center;verticalAlign=middle;rounded=0;fontColor=#000000;whiteSpace=wrap;html=1;labelBackgroundColor=none;" parent="1" vertex="1"><mxGeometry x="-143" y="-188" width="60" height="30" as="geometry"/></mxCell><mxCell id="33" value="1." style="text;align=center;verticalAlign=middle;rounded=0;whiteSpace=wrap;html=1;labelBackgroundColor=none;fontColor=#000000;" parent="1" vertex="1"><mxGeometry x="27" y="-284" width="60" height="30" as="geometry"/></mxCell><mxCell id="34" value="3." style="text;align=center;verticalAlign=middle;rounded=0;fontColor=#000000;whiteSpace=wrap;html=1;labelBackgroundColor=none;" parent="1" vertex="1"><mxGeometry x="-53" y="-124" width="60" height="30" as="geometry"/></mxCell><mxCell id="36" value="1." style="text;align=center;verticalAlign=middle;rounded=0;fontColor=#000000;whiteSpace=wrap;html=1;labelBackgroundColor=none;" parent="1" vertex="1"><mxGeometry x="57" y="-78" width="60" height="30" as="geometry"/></mxCell><mxCell id="39" value="1." style="text;align=center;verticalAlign=middle;rounded=0;fontColor=#000000;whiteSpace=wrap;html=1;labelBackgroundColor=none;" parent="1" vertex="1"><mxGeometry x="480" y="-640" width="60" height="30" as="geometry"/></mxCell><mxCell id="41" value="1." style="text;align=center;verticalAlign=middle;rounded=0;fontColor=#000000;whiteSpace=wrap;html=1;labelBackgroundColor=none;" parent="1" vertex="1"><mxGeometry x="340" y="-342" width="60" height="30" as="geometry"/></mxCell><mxCell id="42" value="2." style="text;align=center;verticalAlign=middle;rounded=0;fontColor=#000000;whiteSpace=wrap;html=1;labelBackgroundColor=none;" parent="1" vertex="1"><mxGeometry x="460" y="-312" width="60" height="30" as="geometry"/></mxCell><mxCell id="43" value="1." style="text;align=center;verticalAlign=middle;rounded=0;fontColor=#000000;whiteSpace=wrap;html=1;labelBackgroundColor=none;" parent="1" vertex="1"><mxGeometry x="390" y="-122" width="60" height="30" as="geometry"/></mxCell><mxCell id="44" value="Maps and Itinerary" style="rounded=1;strokeColor=#009900;fontColor=#FFFFFF;whiteSpace=wrap;html=1;fillColor=#333333;labelBackgroundColor=none;strokeWidth=2;" parent="1" vertex="1"><mxGeometry x="367.5" y="-78" width="135" height="40" as="geometry"/></mxCell><mxCell id="52" value="1." style="text;align=center;verticalAlign=middle;rounded=0;fontColor=#000000;whiteSpace=wrap;html=1;labelBackgroundColor=none;" parent="1" vertex="1"><mxGeometry x="550" y="-358" width="60" height="30" as="geometry"/></mxCell><mxCell id="53" value="1." style="text;align=center;verticalAlign=middle;rounded=0;fontColor=#000000;whiteSpace=wrap;html=1;labelBackgroundColor=none;" parent="1" vertex="1"><mxGeometry x="560" y="-510" width="60" height="30" as="geometry"/></mxCell><mxCell id="56" value="1." style="text;align=center;verticalAlign=middle;rounded=0;fontColor=#000000;whiteSpace=wrap;html=1;labelBackgroundColor=none;" parent="1" vertex="1"><mxGeometry x="720" y="-118" width="60" height="30" as="geometry"/></mxCell><mxCell id="57" value="2." style="text;align=center;verticalAlign=middle;rounded=0;fontColor=#000000;whiteSpace=wrap;html=1;labelBackgroundColor=none;" parent="1" vertex="1"><mxGeometry x="760" y="-457" width="60" height="30" as="geometry"/></mxCell></root></mxGraphModel></diagram></mxfile>